<svg width="40" height="40" viewBox="0 0 40 40" fill="none" xmlns="http://www.w3.org/2000/svg">
<g clip-path="url(#clip0_4078_2995)">
<rect width="40" height="40" rx="20" transform="matrix(-1 0 0 1 40 0)" fill="#ED1450"/>
<path d="M29 19C29.5523 19 30 19.4477 30 20C30 20.5523 29.5523 21 29 21V19ZM11.2929 20.7071C10.9024 20.3166 10.9024 19.6834 11.2929 19.2929L17.6569 12.9289C18.0474 12.5384 18.6805 12.5384 19.0711 12.9289C19.4616 13.3195 19.4616 13.9526 19.0711 14.3431L13.4142 20L19.0711 25.6569C19.4616 26.0474 19.4616 26.6805 19.0711 27.0711C18.6805 27.4616 18.0474 27.4616 17.6569 27.0711L11.2929 20.7071ZM29 21H12V19H29V21Z" fill="white"/>
</g>
<defs>
<clipPath id="clip0_4078_2995">
<rect width="40" height="40" fill="white" transform="matrix(-1 0 0 1 40 0)"/>
</clipPath>
</defs>
</svg>
