<svg width="30" height="30" viewBox="0 0 30 30" fill="none" xmlns="http://www.w3.org/2000/svg">
<g clip-path="url(#clip0_4078_3072)">
<ellipse cx="14.9916" cy="15" rx="14.9984" ry="15" fill="#ED1450"/>
<path d="M23.9411 11.2911C23.8989 10.3347 23.7443 9.67715 23.5227 9.1074C23.2942 8.50262 22.9426 7.96116 22.482 7.51104C22.0319 7.05392 21.4869 6.69872 20.8892 6.47373C20.3162 6.25217 19.6622 6.09751 18.7059 6.05534C17.7424 6.0096 17.4366 5.99902 14.993 5.99902C12.5494 5.99902 12.2436 6.0096 11.2837 6.05177C10.3274 6.09394 9.66992 6.24874 9.10036 6.47016C8.49551 6.69872 7.95411 7.05035 7.50404 7.51104C7.04697 7.96116 6.69194 8.50619 6.46684 9.10396C6.24531 9.67715 6.09066 10.3311 6.0485 11.2875C6.00276 12.2511 5.99219 12.557 5.99219 15.0008C5.99219 17.4447 6.00276 17.7505 6.04493 18.7105C6.08709 19.6669 6.24187 20.3245 6.46341 20.8942C6.69194 21.499 7.04697 22.0405 7.50404 22.4906C7.95411 22.9477 8.49908 23.3029 9.09679 23.5279C9.66992 23.7494 10.3238 23.9041 11.2803 23.9463C12.24 23.9886 12.546 23.999 14.9896 23.999C17.4332 23.999 17.739 23.9886 18.6989 23.9463C19.6552 23.9041 20.3127 23.7494 20.8822 23.5279C22.0918 23.0602 23.0481 22.1038 23.5157 20.8942C23.7371 20.321 23.8919 19.6669 23.9341 18.7105C23.9762 17.7505 23.9868 17.4447 23.9868 15.0008C23.9868 12.557 23.9832 12.2511 23.9411 11.2911ZM22.3203 18.6402C22.2816 19.5193 22.1339 19.994 22.0109 20.3105C21.7085 21.0946 21.0862 21.717 20.3021 22.0194C19.9856 22.1425 19.5076 22.2902 18.632 22.3288C17.6827 22.3711 17.398 22.3815 14.9966 22.3815C12.5952 22.3815 12.3069 22.3711 11.361 22.3288C10.482 22.2902 10.0074 22.1425 9.69093 22.0194C9.30075 21.8752 8.94558 21.6467 8.6573 21.3478C8.35845 21.0559 8.12991 20.7043 7.9857 20.314C7.86264 19.9976 7.715 19.5193 7.67641 18.6438C7.63411 17.6944 7.62367 17.4095 7.62367 15.0078C7.62367 12.6061 7.63411 12.3178 7.67641 11.372C7.715 10.4929 7.86264 10.0182 7.9857 9.70174C8.12991 9.31137 8.35845 8.95631 8.66087 8.66786C8.95259 8.36897 9.30418 8.14041 9.6945 7.99632C10.0109 7.87325 10.4892 7.72559 11.3646 7.68686C12.3139 7.64469 12.5987 7.63411 15 7.63411C17.405 7.63411 17.6897 7.64469 18.6356 7.68686C19.5146 7.72559 19.9892 7.87325 20.3057 7.99632C20.6958 8.14041 21.051 8.36897 21.3393 8.66786C21.6381 8.95974 21.8667 9.31137 22.0109 9.70174C22.1339 10.0182 22.2816 10.4963 22.3203 11.372C22.3625 12.3214 22.3731 12.6061 22.3731 15.0078C22.3731 17.4095 22.3625 17.6908 22.3203 18.6402Z" fill="white"/>
<path d="M14.9931 10.3779C12.4406 10.3779 10.3696 12.449 10.3696 15.0019C10.3696 17.5548 12.4406 19.6259 14.9931 19.6259C17.5457 19.6259 19.6166 17.5548 19.6166 15.0019C19.6166 12.449 17.5457 10.3779 14.9931 10.3779ZM14.9931 18.0013C13.3372 18.0013 11.994 16.6581 11.994 15.0019C11.994 13.3457 13.3372 12.0024 14.9931 12.0024C16.6492 12.0024 17.9922 13.3457 17.9922 15.0019C17.9922 16.6581 16.6492 18.0013 14.9931 18.0013V18.0013Z" fill="white"/>
<path d="M20.8786 10.1946C20.8786 10.7907 20.3953 11.274 19.7991 11.274C19.203 11.274 18.7197 10.7907 18.7197 10.1946C18.7197 9.5984 19.203 9.11523 19.7991 9.11523C20.3953 9.11523 20.8786 9.5984 20.8786 10.1946V10.1946Z" fill="white"/>
</g>
<defs>
<clipPath id="clip0_4078_3072">
<rect width="29.9968" height="30" fill="white" transform="translate(-0.00683594)"/>
</clipPath>
</defs>
</svg>
