<svg width="31" height="30" viewBox="0 0 31 30" fill="none" xmlns="http://www.w3.org/2000/svg">
<g clip-path="url(#clip0_4078_3079)">
<ellipse cx="15.9881" cy="15" rx="14.9984" ry="15" fill="#ED1450"/>
<path d="M9.17141 6.74951C7.85165 6.74951 6.98877 7.68768 6.98877 8.92077C6.98877 10.1266 7.82595 11.0915 9.12077 11.0915H9.14581C10.4914 11.0915 11.3288 10.1266 11.3288 8.92077C11.3036 7.68768 10.4914 6.74951 9.17141 6.74951V6.74951Z" fill="white"/>
<path d="M7.21631 12.3467H11.0745V23.9555H7.21631V12.3467Z" fill="white"/>
<path d="M20.5453 12.0742C18.4639 12.0742 17.0683 14.0302 17.0683 14.0302V12.3467H13.21V23.9555H17.0681V17.4727C17.0681 17.1256 17.0932 16.7791 17.1952 16.5309C17.4741 15.8379 18.1088 15.12 19.1747 15.12C20.5708 15.12 21.1292 16.1845 21.1292 17.7451V23.9555H24.987V17.2992C24.987 13.7335 23.0835 12.0742 20.5453 12.0742V12.0742Z" fill="white"/>
</g>
<defs>
<clipPath id="clip0_4078_3079">
<rect width="29.9968" height="30" fill="white" transform="translate(0.989746)"/>
</clipPath>
</defs>
</svg>
