<svg width="30" height="30" viewBox="0 0 30 30" fill="none" xmlns="http://www.w3.org/2000/svg">
<g clip-path="url(#clip0_4078_3066)">
<ellipse cx="14.995" cy="15" rx="14.9984" ry="15" fill="#ED1450"/>
<path d="M23.9932 9.23138C23.3239 9.525 22.6107 9.71963 21.8672 9.81413C22.6321 9.35738 23.2159 8.63963 23.4904 7.7745C22.7772 8.19975 21.9898 8.50013 21.1506 8.66775C20.4734 7.94663 19.5083 7.5 18.4554 7.5C16.4126 7.5 14.768 9.15825 14.768 11.1911C14.768 11.4836 14.7928 11.7649 14.8535 12.0326C11.786 11.883 9.07166 10.4126 7.24823 8.17275C6.92989 8.72513 6.74316 9.35738 6.74316 10.038C6.74316 11.316 7.40122 12.4489 8.38211 13.1048C7.7893 13.0935 7.20774 12.9214 6.71504 12.6503C6.71504 12.6615 6.71504 12.6761 6.71504 12.6908C6.71504 14.484 7.99403 15.9735 9.67122 16.3166C9.37088 16.3988 9.04354 16.4381 8.70383 16.4381C8.4676 16.4381 8.22913 16.4246 8.00528 16.3751C8.48335 17.8365 9.83995 18.9109 11.453 18.9458C10.1977 19.9279 8.60371 20.5196 6.87815 20.5196C6.57555 20.5196 6.28534 20.5061 5.99512 20.469C7.62957 21.5231 9.56661 22.125 11.6555 22.125C18.4453 22.125 22.1574 16.5 22.1574 11.6243C22.1574 11.4611 22.1518 11.3036 22.1439 11.1473C22.8762 10.6275 23.4915 9.97838 23.9932 9.23138Z" fill="white"/>
</g>
<defs>
<clipPath id="clip0_4078_3066">
<rect width="29.9968" height="30" fill="white" transform="translate(-0.00341797)"/>
</clipPath>
</defs>
</svg>
